<mxfile host="app.diagrams.net" agent="Mozilla/5.0 (Windows NT 10.0; Win64; x64) AppleWebKit/537.36 (KHTML, like Gecko) Chrome/134.0.0.0 Safari/537.36" version="26.1.0">
  <diagram name="Book Sections" id="dv0yhn3yitjc8YlZn5U_">
    <mxGraphModel dx="977" dy="2210" grid="1" gridSize="10" guides="1" tooltips="1" connect="1" arrows="1" fold="1" page="1" pageScale="1" pageWidth="850" pageHeight="1100" math="0" shadow="0">
      <root>
        <mxCell id="0" />
        <mxCell id="1" parent="0" />
        <mxCell id="YtO974dRMq2XP3T-Wjfx-2" value="Sec 1.1&lt;div&gt;Introduction to Whole Numbers&lt;/div&gt;" style="rounded=1;whiteSpace=wrap;html=1;arcSize=35;" vertex="1" parent="1">
          <mxGeometry x="130" y="180" width="120" height="60" as="geometry" />
        </mxCell>
        <mxCell id="YtO974dRMq2XP3T-Wjfx-3" value="Sec 1.2&lt;div&gt;Add Whole Numbers&lt;/div&gt;" style="rounded=1;whiteSpace=wrap;html=1;arcSize=35;" vertex="1" parent="1">
          <mxGeometry x="170" y="520" width="120" height="60" as="geometry" />
        </mxCell>
        <mxCell id="YtO974dRMq2XP3T-Wjfx-4" value="Sec 1.3&lt;div&gt;Subtract Whole Numbers&lt;/div&gt;" style="rounded=1;whiteSpace=wrap;html=1;arcSize=35;" vertex="1" parent="1">
          <mxGeometry x="178" y="604" width="120" height="60" as="geometry" />
        </mxCell>
        <mxCell id="YtO974dRMq2XP3T-Wjfx-5" value="Sec 1.4&lt;div&gt;Multiply Whole Numbers&lt;/div&gt;" style="rounded=1;whiteSpace=wrap;html=1;arcSize=35;" vertex="1" parent="1">
          <mxGeometry x="200" y="700" width="120" height="60" as="geometry" />
        </mxCell>
        <mxCell id="YtO974dRMq2XP3T-Wjfx-6" value="Sec 1.5&lt;div&gt;Divide Whole Numbers&lt;/div&gt;" style="rounded=1;whiteSpace=wrap;html=1;arcSize=35;" vertex="1" parent="1">
          <mxGeometry x="210" y="800" width="120" height="60" as="geometry" />
        </mxCell>
        <mxCell id="YtO974dRMq2XP3T-Wjfx-22" style="edgeStyle=orthogonalEdgeStyle;curved=1;rounded=0;orthogonalLoop=1;jettySize=auto;html=1;" edge="1" parent="1" source="YtO974dRMq2XP3T-Wjfx-7" target="YtO974dRMq2XP3T-Wjfx-11">
          <mxGeometry relative="1" as="geometry" />
        </mxCell>
        <mxCell id="YtO974dRMq2XP3T-Wjfx-25" style="edgeStyle=orthogonalEdgeStyle;curved=1;rounded=0;orthogonalLoop=1;jettySize=auto;html=1;" edge="1" parent="1" source="YtO974dRMq2XP3T-Wjfx-7" target="YtO974dRMq2XP3T-Wjfx-13">
          <mxGeometry relative="1" as="geometry" />
        </mxCell>
        <mxCell id="YtO974dRMq2XP3T-Wjfx-33" style="edgeStyle=orthogonalEdgeStyle;curved=1;rounded=0;orthogonalLoop=1;jettySize=auto;html=1;" edge="1" parent="1" source="YtO974dRMq2XP3T-Wjfx-7" target="YtO974dRMq2XP3T-Wjfx-29">
          <mxGeometry relative="1" as="geometry" />
        </mxCell>
        <mxCell id="YtO974dRMq2XP3T-Wjfx-7" value="Sec 1.1.1&lt;div&gt;Identify counting numbers and whole numbers&lt;/div&gt;" style="rounded=1;whiteSpace=wrap;html=1;arcSize=35;" vertex="1" parent="1">
          <mxGeometry x="480" y="310" width="155" height="60" as="geometry" />
        </mxCell>
        <mxCell id="YtO974dRMq2XP3T-Wjfx-31" style="edgeStyle=orthogonalEdgeStyle;curved=1;rounded=0;orthogonalLoop=1;jettySize=auto;html=1;" edge="1" parent="1" source="YtO974dRMq2XP3T-Wjfx-11" target="YtO974dRMq2XP3T-Wjfx-13">
          <mxGeometry relative="1" as="geometry" />
        </mxCell>
        <mxCell id="YtO974dRMq2XP3T-Wjfx-35" style="edgeStyle=orthogonalEdgeStyle;curved=1;rounded=0;orthogonalLoop=1;jettySize=auto;html=1;" edge="1" parent="1" source="YtO974dRMq2XP3T-Wjfx-11" target="YtO974dRMq2XP3T-Wjfx-30">
          <mxGeometry relative="1" as="geometry" />
        </mxCell>
        <mxCell id="YtO974dRMq2XP3T-Wjfx-11" value="Sec 1.1.2&lt;div&gt;Model whole numbers&lt;/div&gt;" style="rounded=1;whiteSpace=wrap;html=1;arcSize=35;" vertex="1" parent="1">
          <mxGeometry x="790" y="260" width="140" height="60" as="geometry" />
        </mxCell>
        <mxCell id="YtO974dRMq2XP3T-Wjfx-26" style="edgeStyle=orthogonalEdgeStyle;curved=1;rounded=0;orthogonalLoop=1;jettySize=auto;html=1;" edge="1" parent="1" source="YtO974dRMq2XP3T-Wjfx-13" target="YtO974dRMq2XP3T-Wjfx-18">
          <mxGeometry relative="1" as="geometry" />
        </mxCell>
        <mxCell id="YtO974dRMq2XP3T-Wjfx-27" style="edgeStyle=orthogonalEdgeStyle;curved=1;rounded=0;orthogonalLoop=1;jettySize=auto;html=1;" edge="1" parent="1" source="YtO974dRMq2XP3T-Wjfx-13" target="YtO974dRMq2XP3T-Wjfx-15">
          <mxGeometry relative="1" as="geometry" />
        </mxCell>
        <mxCell id="YtO974dRMq2XP3T-Wjfx-28" style="edgeStyle=orthogonalEdgeStyle;curved=1;rounded=0;orthogonalLoop=1;jettySize=auto;html=1;" edge="1" parent="1" source="YtO974dRMq2XP3T-Wjfx-13" target="YtO974dRMq2XP3T-Wjfx-20">
          <mxGeometry relative="1" as="geometry" />
        </mxCell>
        <mxCell id="YtO974dRMq2XP3T-Wjfx-13" value="Sec 1.1.3&lt;div&gt;Identify the place value of a digit&lt;/div&gt;" style="rounded=1;whiteSpace=wrap;html=1;arcSize=35;" vertex="1" parent="1">
          <mxGeometry x="760" y="450" width="120" height="60" as="geometry" />
        </mxCell>
        <mxCell id="YtO974dRMq2XP3T-Wjfx-15" value="Sec 1.1.4&lt;div&gt;Use place value to name whole numbers&lt;/div&gt;" style="rounded=1;whiteSpace=wrap;html=1;arcSize=35;" vertex="1" parent="1">
          <mxGeometry x="610" y="610" width="150" height="60" as="geometry" />
        </mxCell>
        <mxCell id="YtO974dRMq2XP3T-Wjfx-18" value="Sec 1.1.5&lt;div&gt;Use place value to write whole numbers&lt;/div&gt;" style="rounded=1;whiteSpace=wrap;html=1;arcSize=35;" vertex="1" parent="1">
          <mxGeometry x="780" y="610" width="140" height="60" as="geometry" />
        </mxCell>
        <mxCell id="YtO974dRMq2XP3T-Wjfx-20" value="Sec 1.1.6&lt;div&gt;Round whole numbers&lt;/div&gt;" style="rounded=1;whiteSpace=wrap;html=1;arcSize=35;" vertex="1" parent="1">
          <mxGeometry x="960" y="604" width="120" height="60" as="geometry" />
        </mxCell>
        <mxCell id="YtO974dRMq2XP3T-Wjfx-34" style="edgeStyle=orthogonalEdgeStyle;curved=1;rounded=0;orthogonalLoop=1;jettySize=auto;html=1;" edge="1" parent="1" source="YtO974dRMq2XP3T-Wjfx-29" target="YtO974dRMq2XP3T-Wjfx-30">
          <mxGeometry relative="1" as="geometry" />
        </mxCell>
        <mxCell id="YtO974dRMq2XP3T-Wjfx-37" style="edgeStyle=orthogonalEdgeStyle;curved=1;rounded=0;orthogonalLoop=1;jettySize=auto;html=1;" edge="1" parent="1" source="YtO974dRMq2XP3T-Wjfx-29" target="YtO974dRMq2XP3T-Wjfx-36">
          <mxGeometry relative="1" as="geometry" />
        </mxCell>
        <mxCell id="YtO974dRMq2XP3T-Wjfx-29" value="Sec 1.2.1&lt;div&gt;Use addition notation&lt;/div&gt;" style="rounded=1;whiteSpace=wrap;html=1;arcSize=35;" vertex="1" parent="1">
          <mxGeometry x="630" y="100" width="140" height="60" as="geometry" />
        </mxCell>
        <mxCell id="YtO974dRMq2XP3T-Wjfx-30" value="Sec 1.2.2&lt;div&gt;Model addition of whole numbers&lt;/div&gt;" style="rounded=1;whiteSpace=wrap;html=1;arcSize=35;" vertex="1" parent="1">
          <mxGeometry x="880" y="20" width="140" height="60" as="geometry" />
        </mxCell>
        <mxCell id="YtO974dRMq2XP3T-Wjfx-40" style="edgeStyle=orthogonalEdgeStyle;curved=1;rounded=0;orthogonalLoop=1;jettySize=auto;html=1;" edge="1" parent="1" source="YtO974dRMq2XP3T-Wjfx-36" target="YtO974dRMq2XP3T-Wjfx-38">
          <mxGeometry relative="1" as="geometry" />
        </mxCell>
        <mxCell id="YtO974dRMq2XP3T-Wjfx-36" value="Sec 1.2.3&lt;div&gt;Add whole numbers without models&lt;/div&gt;" style="rounded=1;whiteSpace=wrap;html=1;arcSize=35;" vertex="1" parent="1">
          <mxGeometry x="690" y="-120" width="140" height="60" as="geometry" />
        </mxCell>
        <mxCell id="YtO974dRMq2XP3T-Wjfx-41" style="edgeStyle=orthogonalEdgeStyle;curved=1;rounded=0;orthogonalLoop=1;jettySize=auto;html=1;" edge="1" parent="1" source="YtO974dRMq2XP3T-Wjfx-38" target="YtO974dRMq2XP3T-Wjfx-39">
          <mxGeometry relative="1" as="geometry" />
        </mxCell>
        <mxCell id="YtO974dRMq2XP3T-Wjfx-38" value="Sec 1.2.4&lt;div&gt;Translate word phrases to math notation&lt;/div&gt;" style="rounded=1;whiteSpace=wrap;html=1;arcSize=35;" vertex="1" parent="1">
          <mxGeometry x="840" y="-210" width="140" height="60" as="geometry" />
        </mxCell>
        <mxCell id="YtO974dRMq2XP3T-Wjfx-39" value="Sec 1.2.5&lt;div&gt;Add whole numbers in applications&lt;/div&gt;" style="rounded=1;whiteSpace=wrap;html=1;arcSize=35;" vertex="1" parent="1">
          <mxGeometry x="1030" y="-320" width="140" height="60" as="geometry" />
        </mxCell>
      </root>
    </mxGraphModel>
  </diagram>
</mxfile>
